# File created by Blade
# Date/Time:  Thu Jan 22 19:49:01 2015
# Frame Rate: 120.000 fps
#------------------------------------------------------
:FULLY-SPECIFIED
:DEGREES
1565
root -2.469561 3.326690 -10.791531 -26.596181 6.836712 -0.550868
RightUpLeg -61.973647 -11.532854 4.286128
RightLeg 4.584304 -0.000000 -0.000000
RightFoot 23.762731 -2.557489 10.337746
RightToeBase -14.046872 -0.000000 0.000000
LeftUpLeg -87.398107 -35.195765 -47.910712
LeftLeg 118.560326 -0.000000 -0.000000
LeftFoot 7.929850 13.617089 -7.123504
LeftToeBase -17.975786 -0.000000 0.000000
Spine 45.791427 48.734268 26.971729
RightShoulder 7.755960 10.927287 -21.598727
RightArm 84.861621 -45.802951 9.843291
RightForeArm -4.800367 -0.000000 65.965875
RightHand 14.638632 -0.000000 45.921625
RightHandThumb1 -24.326973 -0.000000 -32.862282
LeftShoulder -20.730555 0.020589 18.850618
LeftArm 11.280351 39.125766 -90.543513
LeftForeArm -4.420431 0.000000 2.327854
LeftHand -19.018925 -0.000000 56.483084
LeftHandThumb1 -26.253704 0.000000 33.147579
Head -41.855902 68.765481 -42.845082
1566
root -2.470753 3.324943 -10.790751 -26.601463 6.829013 -0.542903
RightUpLeg -61.977759 -11.527443 4.299154
RightLeg 4.593332 -0.000000 -0.000000
RightFoot 23.763207 -2.559624 10.322118
RightToeBase -14.082489 -0.000000 0.000000
LeftUpLeg -87.401570 -35.187395 -47.919779
LeftLeg 118.565666 -0.000000 -0.000000
LeftFoot 7.933150 13.620235 -7.085660
LeftToeBase -17.967545 -0.000000 0.000000
Spine 45.789713 48.744450 26.956882
RightShoulder 7.735457 10.952709 -21.540413
RightArm 84.944689 -45.778066 9.709642
RightForeArm -4.755031 -0.000000 66.019737
RightHand 14.601849 0.000000 45.892950
RightHandThumb1 -24.326973 -0.000000 -32.862282
LeftShoulder -20.741505 0.054113 18.874686
LeftArm 11.297903 39.070214 -90.558061
LeftForeArm -4.361795 -0.000000 2.335835
LeftHand -18.982638 -0.000000 56.450507
LeftHandThumb1 -26.253704 0.000000 33.147579
Head -42.132354 68.770596 -43.021599
1567
root -2.470839 3.323623 -10.790331 -26.607415 6.832657 -0.527924
RightUpLeg -61.977266 -11.544152 4.329738
RightLeg 4.586867 -0.000000 -0.000000
RightFoot 23.751074 -2.560366 10.308797
RightToeBase -14.071338 -0.000000 0.000000
LeftUpLeg -87.390997 -35.179164 -47.943912
LeftLeg 118.562524 -0.000000 -0.000000
LeftFoot 7.954263 13.636634 -7.057990
LeftToeBase -18.058350 -0.000000 0.000000
Spine 45.797059 48.741368 26.944533
RightShoulder 7.716380 10.944715 -21.526369
RightArm 84.978092 -45.748907 9.680875
RightForeArm -4.777636 -0.000000 66.053748
RightHand 14.568191 -0.000000 45.906677
RightHandThumb1 -24.326973 -0.000000 -32.862282
LeftShoulder -20.734829 0.068467 18.883728
LeftArm 11.307459 39.035235 -90.566216
LeftForeArm -4.369355 -0.000000 2.333455
LeftHand -18.979634 -0.000000 56.454601
LeftHandThumb1 -26.253704 0.000000 33.147579
Head -42.345600 68.762460 -43.157374
1568
root -2.470732 3.322094 -10.789138 -26.618567 6.824362 -0.510731
RightUpLeg -61.972599 -11.532474 4.315431
RightLeg 4.599457 -0.000000 -0.000000
RightFoot 23.736110 -2.580064 10.315964
RightToeBase -14.047383 -0.000000 0.000000
LeftUpLeg -87.389026 -35.166569 -47.960956
LeftLeg 118.566179 -0.000000 -0.000000
LeftFoot 7.947272 13.640997 -7.064489
LeftToeBase -17.976964 -0.000000 0.000000
Spine 45.809477 48.745303 26.941016
RightShoulder 7.689173 10.965303 -21.472797
RightArm 85.084569 -45.717179 9.526749
RightForeArm -4.747022 -0.000000 66.101368
RightHand 14.532113 -0.000000 45.866547
RightHandThumb1 -24.326973 -0.000000 -32.862282
LeftShoulder -20.723808 0.072912 18.897582
LeftArm 11.272760 38.976978 -90.599980
LeftForeArm -4.369349 -0.000000 2.345619
LeftHand -18.893641 -0.000000 56.489446
LeftHandThumb1 -26.253704 0.000000 33.147579
Head -42.562063 68.764918 -43.285737
1569
root -2.471170 3.320930 -10.789193 -26.625595 6.820756 -0.499276
RightUpLeg -61.973283 -11.532000 4.313895
RightLeg 4.611182 -0.000000 -0.000000
RightFoot 23.712639 -2.605611 10.319212
RightToeBase -14.031923 -0.000000 0.000000
LeftUpLeg -87.385168 -35.160549 -47.973295
LeftLeg 118.564575 -0.000000 -0.000000
LeftFoot 7.951592 13.655373 -7.034124
LeftToeBase -17.994152 -0.000000 0.000000
Spine 45.823160 48.736182 26.941847
RightShoulder 7.658598 10.983275 -21.450412
RightArm 85.166834 -45.696829 9.438143
RightForeArm -4.686065 0.000000 66.109620
RightHand 14.502591 0.000000 45.910168
RightHandThumb1 -24.326973 -0.000000 -32.862282
LeftShoulder -20.720841 0.057152 18.909138
LeftArm 11.270679 38.992469 -90.612761
LeftForeArm -4.398637 0.000000 2.314883
LeftHand -18.988688 -0.000000 56.488224
LeftHandThumb1 -26.253704 0.000000 33.147579
Head -42.746326 68.744688 -43.401622
1570
root -2.472699 3.319091 -10.788931 -26.632556 6.810570 -0.485044
RightUpLeg -61.981212 -11.526849 4.321022
RightLeg 4.632501 -0.000000 -0.000000
RightFoot 23.682373 -2.653841 10.329567
RightToeBase -13.954326 -0.000000 0.000000
LeftUpLeg -87.401736 -35.157402 -47.963549
LeftLeg 118.572450 -0.000000 -0.000000
LeftFoot 7.937650 13.647611 -7.017724
LeftToeBase -17.915265 -0.000000 0.000000
Spine 45.833911 48.726482 26.939247
RightShoulder 7.648845 11.009118 -21.443077
RightArm 85.218305 -45.684528 9.398788
RightForeArm -4.618821 -0.000000 66.098298
RightHand 14.466192 -0.000000 45.949968
RightHandThumb1 -24.326973 -0.000000 -32.862282
LeftShoulder -20.728293 0.072074 18.905561
LeftArm 11.298234 38.989073 -90.607714
LeftForeArm -4.427637 0.000000 2.278576
LeftHand -18.933445 -0.000000 56.531249
LeftHandThumb1 -26.253704 0.000000 33.147579
Head -42.900897 68.735577 -43.489785
1571
root -2.472988 3.318681 -10.789389 -26.632295 6.803500 -0.463840
RightUpLeg -61.992848 -11.522055 4.319015
RightLeg 4.653408 -0.000000 -0.000000
RightFoot 23.649640 -2.707189 10.334959
RightToeBase -13.910018 -0.000000 0.000000
LeftUpLeg -87.412367 -35.152123 -47.967901
LeftLeg 118.571473 -0.000000 -0.000000
LeftFoot 7.951473 13.651012 -7.027351
LeftToeBase -17.958504 -0.000000 0.000000
Spine 45.850868 48.725859 26.935379
RightShoulder 7.612191 11.025607 -21.443779
RightArm 85.261421 -45.681270 9.396038
RightForeArm -4.595595 0.000000 66.046623
RightHand 14.479605 0.000000 46.010003
RightHandThumb1 -24.326973 -0.000000 -32.862282
LeftShoulder -20.728726 0.055075 18.899017
LeftArm 11.295104 38.989526 -90.613827
LeftForeArm -4.466675 -0.000000 2.243398
LeftHand -18.903998 -0.000000 56.578102
LeftHandThumb1 -26.253704 0.000000 33.147579
Head -43.074280 68.720831 -43.607439
1572
root -2.473358 3.318295 -10.790013 -26.628077 6.799514 -0.441956
RightUpLeg -62.005545 -11.525414 4.330503
RightLeg 4.658525 -0.000000 -0.000000
RightFoot 23.609745 -2.752132 10.319747
RightToeBase -13.820955 -0.000000 0.000000
LeftUpLeg -87.420992 -35.157138 -47.975398
LeftLeg 118.569085 -0.000000 -0.000000
LeftFoot 7.950698 13.660642 -7.038382
LeftToeBase -17.899888 -0.000000 0.000000
Spine 45.854824 48.716318 26.917703
RightShoulder 7.588148 11.052572 -21.439231
RightArm 85.310802 -45.679922 9.375940
RightForeArm -4.536673 -0.000000 65.996661
RightHand 14.441690 -0.000000 46.073843
RightHandThumb1 -24.326973 -0.000000 -32.862282
LeftShoulder -20.738174 0.041678 18.896350
LeftArm 11.301593 38.973235 -90.622794
LeftForeArm -4.483548 -0.000000 2.187043
LeftHand -18.897443 -0.000000 56.553388
LeftHandThumb1 -26.253704 0.000000 33.147579
Head -43.227281 68.701448 -43.699670
1573
root -2.474908 3.317688 -10.790375 -26.624470 6.784784 -0.430000
RightUpLeg -62.014450 -11.518071 4.346136
RightLeg 4.663680 -0.000000 -0.000000
RightFoot 23.567064 -2.822587 10.355976
RightToeBase -13.776245 -0.000000 0.000000
LeftUpLeg -87.443841 -35.161165 -47.956675
LeftLeg 118.572754 -0.000000 -0.000000
LeftFoot 7.966727 13.654291 -6.995759
LeftToeBase -18.002665 -0.000000 0.000000
Spine 45.849281 48.707055 26.904534
RightShoulder 7.583739 11.072692 -21.436350
RightArm 85.341892 -45.673736 9.360952
RightForeArm -4.492284 -0.000000 65.965081
RightHand 14.434759 0.000000 46.081864
RightHandThumb1 -24.326973 -0.000000 -32.862282
LeftShoulder -20.759399 0.063566 18.880422
LeftArm 11.329531 38.900826 -90.626003
LeftForeArm -4.433699 -0.000000 2.146073
LeftHand -18.866841 -0.000000 56.568565
LeftHandThumb1 -26.253704 0.000000 33.147579
Head -43.400717 68.681636 -43.796103
1574
root -2.476575 3.317589 -10.790523 -26.618443 6.767578 -0.418485
RightUpLeg -62.031080 -11.516331 4.379115
RightLeg 4.675538 -0.000000 -0.000000
RightFoot 23.529547 -2.864517 10.366826
RightToeBase -13.745648 -0.000000 0.000000
LeftUpLeg -87.466462 -35.167789 -47.940879
LeftLeg 118.575892 -0.000000 -0.000000
LeftFoot 7.970359 13.668712 -6.944395
LeftToeBase -17.897486 -0.000000 0.000000
Spine 45.833581 48.686739 26.881268
RightShoulder 7.570275 11.100431 -21.419844
RightArm 85.409240 -45.655364 9.313184
RightForeArm -4.463298 0.000000 65.936031
RightHand 14.409007 0.000000 46.125823
RightHandThumb1 -24.326973 -0.000000 -32.862282
LeftShoulder -20.781933 0.081425 18.868553
LeftArm 11.345532 38.811601 -90.641368
LeftForeArm -4.379019 -0.000000 2.083044
LeftHand -18.829734 -0.000000 56.483714
LeftHandThumb1 -26.253704 0.000000 33.147579
Head -43.610404 68.678256 -43.944626
1575
root -2.477999 3.316949 -10.790455 -26.611654 6.752214 -0.402361
RightUpLeg -62.050800 -11.515834 4.409428
RightLeg 4.688983 -0.000000 -0.000000
RightFoot 23.497123 -2.905162 10.359258
RightToeBase -13.720080 -0.000000 0.000000
LeftUpLeg -87.475407 -35.162695 -47.955785
LeftLeg 118.580266 -0.000000 -0.000000
LeftFoot 7.977903 13.714000 -6.888915
LeftToeBase -17.915148 -0.000000 0.000000
Spine 45.807616 48.665994 26.843410
RightShoulder 7.585844 11.115638 -21.404938
RightArm 85.415182 -45.634634 9.308066
RightForeArm -4.455221 -0.000000 65.953441
RightHand 14.404008 0.000000 46.169569
RightHandThumb1 -24.326973 -0.000000 -32.862282
LeftShoulder -20.786289 0.093354 18.868187
LeftArm 11.328647 38.701541 -90.675407
LeftForeArm -4.337991 0.000000 2.058754
LeftHand -18.878050 -0.000000 56.404067
LeftHandThumb1 -26.253704 0.000000 33.147579
Head -43.797580 68.663429 -44.050638
1576
root -2.479785 3.316697 -10.791015 -26.604901 6.741492 -0.385195
RightUpLeg -62.069869 -11.522761 4.440406
RightLeg 4.699455 -0.000000 -0.000000
RightFoot 23.472142 -2.924888 10.339728
RightToeBase -13.722029 -0.000000 0.000000
LeftUpLeg -87.497086 -35.167814 -47.930544
LeftLeg 118.568795 -0.000000 -0.000000
LeftFoot 7.983516 13.689780 -6.964565
LeftToeBase -18.030629 -0.000000 0.000000
Spine 45.782655 48.635110 26.794716
RightShoulder 7.561400 11.169536 -21.376096
RightArm 85.498008 -45.623138 9.240894
RightForeArm -4.478078 -0.000000 65.963284
RightHand 14.426465 -0.000000 46.218061
RightHandThumb1 -24.326973 -0.000000 -32.862282
LeftShoulder -20.793210 0.078208 18.868763
LeftArm 11.288556 38.636622 -90.707495
LeftForeArm -4.314867 -0.000000 2.021057
LeftHand -18.792326 -0.000000 56.422180
LeftHandThumb1 -26.253704 0.000000 33.147579
Head -44.054440 68.648090 -44.231975
1577
root -2.482347 3.315966 -10.790509 -26.602675 6.716788 -0.371890
RightUpLeg -62.078912 -11.512254 4.473799
RightLeg 4.706606 -0.000000 -0.000000
RightFoot 23.432747 -2.959823 10.341221
RightToeBase -13.609147 -0.000000 0.000000
LeftUpLeg -87.530293 -35.166347 -47.906745
LeftLeg 118.574974 -0.000000 -0.000000
LeftFoot 7.978296 13.678317 -7.024003
LeftToeBase -17.934861 -0.000000 0.000000
Spine 45.768688 48.618591 26.766770
RightShoulder 7.536556 11.187120 -21.367471
RightArm 85.551529 -45.583766 9.206277
RightForeArm -4.501238 -0.000000 66.010598
RightHand 14.368257 0.000000 46.229079
RightHandThumb1 -24.326973 -0.000000 -32.862282
LeftShoulder -20.772321 0.053882 18.879683
LeftArm 11.215654 38.556258 -90.759830
LeftForeArm -4.355267 -0.000000 2.012017
LeftHand -18.804371 -0.000000 56.418036
LeftHandThumb1 -26.253704 0.000000 33.147579
Head -44.311510 68.627385 -44.401368
